# xmcd
#
# Track frame offsets: 
#        150
#        12254
#        26101
#        41376
#        57158
#        72110
#        88435
#        103001
#        118381
#        134193
#        153130
#        166594
#        186916
#        206334
#        220255
#        244102
#
# Disc length: 3420 seconds
#
# Revision: 0
# Processed by: cddbd v1.5.2PL0 Copyright (c) Steve Scherf et al.
# Submitted via: ExactAudioCopyFreeDBPlugin 1.0
#
DISCID=e30d5a10
DTITLE=Schorsch Hampel - hoamwehblues
DYEAR=2019
DGENRE=Blues
TTITLE0=neili
TTITLE1=2017 blues (zruckgschaut)
TTITLE2=schaugzn o
TTITLE3=ja ned mein hund
TTITLE4=kloana dicka bua
TTITLE5=hunga
TTITLE6=ko ned schlaffa
TTITLE7=wanderblues
TTITLE8=mississippi sehgn
TTITLE9=jeds mechad
TTITLE10=nehemia
TTITLE11=faistal
TTITLE12=siebter sohn
TTITLE13=wardn hoid
TTITLE14=schee wars
TTITLE15=hoamwehblues
EXTD=
EXTT0=
EXTT1=
EXTT2=
EXTT3=
EXTT4=
EXTT5=
EXTT6=
EXTT7=
EXTT8=
EXTT9=
EXTT10=
EXTT11=
EXTT12=
EXTT13=
EXTT14=
EXTT15=
PLAYORDER=
